<?xml version="1.0" encoding="utf-8"?>
<!-- Generator: Adobe Illustrator 17.1.0, SVG Export Plug-In . SVG Version: 6.00 Build 0)  -->
<!DOCTYPE svg PUBLIC "-//W3C//DTD SVG 1.1//EN" "http://www.w3.org/Graphics/SVG/1.1/DTD/svg11.dtd">
<svg version="1.1" id="Layer_1" xmlns="http://www.w3.org/2000/svg" xmlns:xlink="http://www.w3.org/1999/xlink" x="0px" y="0px"
	 viewBox="-127 0 338 96" enable-background="new -127 0 338 96" xml:space="preserve">
<g>
	<path fill="none" stroke="#FFFFFF" stroke-width="2" stroke-linecap="round" stroke-linejoin="round" d="M39.9,40.8v37.8"/>
	<g transform="translate(9 39)">
		<defs>
			<filter id="Adobe_OpacityMaskFilter" filterUnits="userSpaceOnUse" x="11.1" y="-3.6" width="14.4" height="48.6">
				<feColorMatrix  type="matrix" values="1 0 0 0 0  0 1 0 0 0  0 0 1 0 0  0 0 0 1 0"/>
			</filter>
		</defs>
		<mask maskUnits="userSpaceOnUse" x="11.1" y="-3.6" width="14.4" height="48.6" id="b">
			<g filter="url(#Adobe_OpacityMaskFilter)">
				<path id="a" fill="#FFFFFF" d="M21,38.7c0,1-0.8,1.8-1.8,1.8h-1.8c-1,0-1.8-0.8-1.8-1.8v-36c0-1,0.8-1.8,1.8-1.8h1.8
					c1,0,1.8,0.8,1.8,1.8V38.7z"/>
			</g>
		</mask>
		<path mask="url(#b)" fill="#FFFFFF" d="M11.1,45h14.4V-3.6H11.1V45z"/>
	</g>
	<g>
		<path fill="none" stroke="#FFFFFF" stroke-width="2" stroke-linecap="round" stroke-linejoin="round" d="M131.8,82.2H80.5
			c-1.5,0-2.8-1.2-2.8-2.7v-0.9c0-1.5,1.3-2.7,2.8-2.7h117c5-3.9,8.1-9.6,8.1-16.4c0-11.7-9.6-21.3-21.5-21.3c-2,0-3.5,0.3-5.3,0.7
			c0,0,0.1-1.7,0.1-2.3c0-17.1-14.5-31.1-32.4-31.1c-14.3,0-26.4,8.9-30.7,21.2c-1.5-0.3-3.2-0.5-4.8-0.5
			c-12.2,0-22.2,8.9-23.3,20.4 M66,31.8c0-1-0.8-1.8-1.8-1.8h-45c-1,0-1.8,0.8-1.8,1.8v56.7c0,1,0.8,1.8,1.8,1.8h45
			c1,0,1.8-0.8,1.8-1.8V31.8z"/>
		<path fill="none" stroke="#FFFFFF" stroke-width="2" stroke-linecap="round" stroke-linejoin="round" d="M33.6,78.6h22.5
			c1,0,1.8-0.8,1.8-1.8v-2.7c0-1-0.8-1.8-1.8-1.8H35.4c-1,0-1.8-0.8-1.8-1.8v-2.7c0-1,0.8-1.8,1.8-1.8h20.7c1,0,1.8-0.8,1.8-1.8
			v-2.7c0-1-0.8-1.8-1.8-1.8H35.4c-1,0-1.8-0.8-1.8-1.8v-2.7c0-1,0.8-1.8,1.8-1.8h20.7c1,0,1.8-0.8,1.8-1.8v-2.7
			c0-1-0.8-1.8-1.8-1.8H35.4c-1,0-1.8-0.8-1.8-1.8v-2.7c0-1,0.8-1.8,1.8-1.8h22.5"/>
		<path fill="none" stroke="#FFFFFF" stroke-width="2" stroke-linecap="round" stroke-linejoin="round" stroke-dasharray="2,4" d="
			M69.6,58.8H102"/>
	</g>
	<g transform="translate(88 53)">
		<defs>
			<filter id="Adobe_OpacityMaskFilter_1_" filterUnits="userSpaceOnUse" x="3.6" y="-4.5" width="16.3" height="20.7">
				<feColorMatrix  type="matrix" values="1 0 0 0 0  0 1 0 0 0  0 0 1 0 0  0 0 0 1 0"/>
			</filter>
		</defs>
		<mask maskUnits="userSpaceOnUse" x="3.6" y="-4.5" width="16.3" height="20.7" id="d">
			<g filter="url(#Adobe_OpacityMaskFilter_1_)">
				<path id="c" fill="#FFFFFF" d="M9.1,11.7l-1-1l5.2-4.9L8.1,0.9l1-1l6.3,5.9L9.1,11.7z"/>
			</g>
		</mask>
		<path mask="url(#d)" fill="#FFFFFF" d="M3.6,16.2h16.3V-4.5H3.6V16.2z"/>
	</g>
	<g transform="translate(104 51)">
		<defs>
			<filter id="Adobe_OpacityMaskFilter_2_" filterUnits="userSpaceOnUse" x="2.2" y="-4.2" width="81.9" height="23.1">
				<feColorMatrix  type="matrix" values="1 0 0 0 0  0 1 0 0 0  0 0 1 0 0  0 0 0 1 0"/>
			</filter>
		</defs>
		<mask maskUnits="userSpaceOnUse" x="2.2" y="-4.2" width="81.9" height="23.1" id="f">
			<g filter="url(#Adobe_OpacityMaskFilter_2_)">
				<path id="e" fill="#FFFFFF" d="M30.6,9.5c-1.2,0-1.7-1-1.7-2s0.6-2,1.7-2c0.5,0,1.1,0.3,1.4,0.6l1.3-1.3c-0.6-0.6-1.5-1-2.6-1
					c-2.2,0-3.7,1.5-3.7,3.6c0,2.2,1.5,3.6,3.7,3.6c1.1,0,2-0.3,2.5-0.9L31.9,9C31.6,9.3,31.1,9.5,30.6,9.5z M20.3,7.9
					c0,0.8-0.5,1.7-1.5,1.7c-0.7,0-1.2-0.5-1.2-1.6V4.2h-1.9v4.2c0,1.4,0.7,2.8,2.6,2.8c0.9,0,1.6-0.7,2-1.3v1h1.8V4.1h-1.9
					C20.2,4.1,20.3,7.9,20.3,7.9z M23.7,11h1.9V4.1h-1.9V11z M12.4,5c-0.3-0.3-1-1.1-2.3-1.1c-1.9,0-3.4,1.5-3.4,3.6S8,11.2,10,11.2
					c0.9,0,1.7-0.5,2.2-1v4.2h1.9V4.1h-1.8L12.4,5L12.4,5z M10.5,9.5c-1.2,0-1.8-1-1.8-2.1c0-1,0.6-2,1.8-2s1.8,1.1,1.8,2.1
					C12.4,8.5,11.6,9.5,10.5,9.5z M53.6,3.9c-2.2,0-3.7,1.5-3.7,3.6c0,2.2,1.6,3.7,3.7,3.7c2.2,0,3.7-1.5,3.7-3.7
					C57.4,5.5,55.8,3.9,53.6,3.9z M53.6,9.5c-1.3,0-1.8-1.1-1.8-2.1s0.5-2,1.8-2s1.8,1.1,1.8,2C55.4,8.5,54.9,9.5,53.6,9.5z
					 M73.7,4.1h-2.4L68.8,7V0.3h-1.9V11h1.9V7.5l2.5,3.4h2.5l-3-3.8C70.9,7.2,73.7,4.1,73.7,4.1z M62,3.9c-2.2,0-3.7,1.5-3.7,3.6
					c0,2.2,1.6,3.7,3.7,3.7c2.2,0,3.7-1.5,3.7-3.7C65.7,5.5,64.2,3.9,62,3.9z M62,9.5c-1.3,0-1.8-1.1-1.8-2.1s0.5-2,1.8-2
					s1.8,1.1,1.8,2C63.8,8.5,63.2,9.5,62,9.5z M40.9,4.1h-2.4L36.1,7V0.3h-2V11H36V7.5l2.5,3.4H41l-3-3.8C38,7.2,40.9,4.1,40.9,4.1z
					 M45.7,3.9c-0.9,0-1.5,0.4-2.1,0.9V0.3h-1.9V11h1.8v-1c0.5,0.7,1.3,1.2,2.2,1.2c2,0,3.4-1.5,3.4-3.7C49,5.5,47.6,3.9,45.7,3.9z
					 M45.2,9.5c-1.2,0-1.8-1-1.8-2s0.7-2.1,1.8-2.1c1.3,0,1.8,1.1,1.8,2C47.1,8.5,46.4,9.5,45.2,9.5z M77.3,6.7
					C76.3,6.5,76,6.4,76,6c0-0.5,0.7-0.6,1-0.6c0.6,0,1.3,0.4,1.5,0.7L79.6,5C79,4.4,78,4,76.9,4c-1.4,0-2.8,0.7-2.8,2.3
					c0,1.4,1.1,1.7,2.1,2c1.1,0.3,1.4,0.5,1.4,0.9c0,0.6-0.7,0.7-1,0.7c-0.6,0-1.4-0.4-1.7-0.8l-1.2,1.2c0.6,0.7,1.7,1.1,2.8,1.1
					c1.9,0,3-0.9,3-2.3C79.6,7.4,78.3,7,77.3,6.7z"/>
			</g>
		</mask>
		<path mask="url(#f)" fill="#FFFFFF" d="M2.2,19h81.9V-4.2H2.2V19z"/>
	</g>
	<g transform="translate(186 61)">
		<defs>
			<filter id="Adobe_OpacityMaskFilter_3_" filterUnits="userSpaceOnUse" x="-6" y="-5.1" width="10.6" height="10.6">
				<feColorMatrix  type="matrix" values="1 0 0 0 0  0 1 0 0 0  0 0 1 0 0  0 0 0 1 0"/>
			</filter>
		</defs>
		<mask maskUnits="userSpaceOnUse" x="-6" y="-5.1" width="10.6" height="10.6" id="h">
			<g filter="url(#Adobe_OpacityMaskFilter_3_)">
				<path id="g" fill="#FFFFFF" d="M-0.7-0.6c-0.5,0-0.8,0.4-0.8,0.8s0.4,0.8,0.8,0.8s0.8-0.4,0.8-0.8S-0.3-0.6-0.7-0.6z M-0.7,0.9
					c-0.4,0-0.6-0.3-0.6-0.6s0.3-0.6,0.6-0.6s0.6,0.3,0.6,0.6C0,0.6-0.4,0.9-0.7,0.9z M-0.4,0.1c0-0.2-0.2-0.3-0.4-0.3H-1v0.9h0.2
					V0.3h0.1l0.2,0.4h0.2l-0.3-0.4C-0.5,0.2-0.4,0.2-0.4,0.1z M-0.8,0.2v-0.3h0.2c0.1,0,0.2,0,0.2,0.1s-0.1,0.1-0.2,0.1L-0.8,0.2
					C-0.8,0.1-0.8,0.2-0.8,0.2z"/>
			</g>
		</mask>
		<path mask="url(#h)" fill="#FFFFFF" d="M-6,5.6H4.6V-5.1H-6V5.6z"/>
	</g>
	<g transform="translate(136 30)">
		<defs>
			<filter id="Adobe_OpacityMaskFilter_4_" filterUnits="userSpaceOnUse" x="-1.4" y="-2.3" width="25" height="25">
				<feColorMatrix  type="matrix" values="1 0 0 0 0  0 1 0 0 0  0 0 1 0 0  0 0 0 1 0"/>
			</filter>
		</defs>
		<mask maskUnits="userSpaceOnUse" x="-1.4" y="-2.3" width="25" height="25" id="j">
			<g filter="url(#Adobe_OpacityMaskFilter_4_)">
				<path id="i" fill="#FFFFFF" d="M11.2,18.3c4.4,0,8-3.6,8-8s-3.6-8-8-8s-8,3.6-8,8S6.7,18.3,11.2,18.3z"/>
			</g>
		</mask>
		<path mask="url(#j)" fill="#FFFFFF" d="M-1.4,22.8h25v-25h-25V22.8z"/>
	</g>
	<g transform="translate(138 33)">
		<defs>
			<filter id="Adobe_OpacityMaskFilter_5_" filterUnits="userSpaceOnUse" x="-1.1" y="-2.4" width="20.5" height="19.3">
				<feColorMatrix  type="matrix" values="1 0 0 0 0  0 1 0 0 0  0 0 1 0 0  0 0 0 1 0"/>
			</filter>
		</defs>
		<mask maskUnits="userSpaceOnUse" x="-1.1" y="-2.4" width="20.5" height="19.3" id="l">
			<g filter="url(#Adobe_OpacityMaskFilter_5_)">
				<path id="k" fill="#FFFFFF" d="M3.4,7.3c0,1.7,1.4,3.1,3.1,3.1h0.5V9.1H6.5c-1.1,0-2-0.9-2-2s0.9-2,2-2h1.1v6
					c0,0.6,0.5,1.2,1.2,1.2V4.2H6.5C4.8,4.2,3.4,5.5,3.4,7.3z M11.9,4.2h-0.5v1.2h0.5c1.1,0,2,0.9,2,2s-0.9,2-2,2h-1.1v-6
					c0-0.6-0.5-1.2-1.2-1.2v8.4h2.3c1.7,0,3.1-1.4,3.1-3.1C14.9,5.5,13.6,4.2,11.9,4.2z"/>
			</g>
		</mask>
		<path mask="url(#l)" fill="#2CA01C" d="M-1.1,16.9h20.5V-2.4H-1.1V16.9z"/>
	</g>
	<g transform="translate(105 49)">
		<defs>
			<filter id="Adobe_OpacityMaskFilter_6_" filterUnits="userSpaceOnUse" x="2.2" y="-4.1" width="21.9" height="12.8">
				<feColorMatrix  type="matrix" values="1 0 0 0 0  0 1 0 0 0  0 0 1 0 0  0 0 0 1 0"/>
			</filter>
		</defs>
		<mask maskUnits="userSpaceOnUse" x="2.2" y="-4.1" width="21.9" height="12.8" id="n">
			<g filter="url(#Adobe_OpacityMaskFilter_6_)">
				<path id="m" fill="#FFFFFF" d="M9.5,1.4C9.1,1.4,8.8,1.7,8.7,2V1.5H8v2.6h0.6V2.7C8.7,2.3,8.8,2,9.3,2s0.5,0.4,0.5,0.7v1.4h0.6
					V2.5C10.4,2,10.1,1.4,9.5,1.4z M6.7,4.1h0.6V1.5H6.7C6.7,1.5,6.7,4.1,6.7,4.1z M18.6,1.2c0.2,0,0.4-0.2,0.4-0.4
					s-0.2-0.4-0.4-0.4s-0.4,0.2-0.4,0.4S18.4,1.2,18.6,1.2z M11.8,1.2c0.2,0,0.4-0.2,0.4-0.4S12,0.4,11.8,0.4
					c-0.2,0-0.4,0.2-0.4,0.4S11.6,1.2,11.8,1.2z M10.7,2.2h0.7v2.1h0.6V2.2h0.7V1.6h-2.2L10.7,2.2z M15.1,3c0,0.4-0.2,0.7-0.6,0.7
					S14,3.3,14,3V1.5h-0.6v1.6c0,0.5,0.3,1.1,1,1.1c0.4,0,0.7-0.3,0.8-0.5v0.5h0.6V1.5h-0.7V3z M17.5,1.5v0.5h0.7v2.1h0.6V2.1h0.7
					V1.5H17.5z M16.4,4.1H17V1.5h-0.6C16.4,1.5,16.4,4.1,16.4,4.1z"/>
			</g>
		</mask>
		<path mask="url(#n)" fill="#FFFFFF" d="M2.2,8.7h21.9V-4.1H2.2V8.7z"/>
	</g>
</g>
<g>
	<path fill="#FFFFFF" d="M-12.1,72.5c-8.3,0-15.1-6.8-15.1-15.1s6.8-15.1,15.1-15.1S3,49.1,3,57.4S-3.8,72.5-12.1,72.5z M-12.1,66.3
		c4.9,0,8.9-4,8.9-8.9s-4-8.9-8.9-8.9s-8.9,4-8.9,8.9C-21,62.3-17,66.3-12.1,66.3z M-43.7,72.5c-8.3,0-15.1-6.8-15.1-15.1
		s6.8-15.1,15.1-15.1s15.1,6.8,15.1,15.1S-35.4,72.5-43.7,72.5z M-43.7,66.3c4.9,0,8.9-4,8.9-8.9s-4-8.9-8.9-8.9s-8.9,4-8.9,8.9
		C-52.6,62.3-48.6,66.3-43.7,66.3z M-60.2,57.2c0,8.4-6.8,15.3-15.1,15.3c-8.3,0-15.1-6.8-15.1-15.3c0-8.4,6.1-14.9,15.1-14.9
		c3.3,0,6.4,0.7,8.9,2.5l0-8.7c0-1.7,1.5-3,3.1-3c1.7,0,3.1,1.4,3.1,3V57.2z M-75.3,66.3c4.9,0,8.9-4,8.9-8.9s-4-8.9-8.9-8.9
		c-4.9,0-8.9,4-8.9,8.9C-84.1,62.3-80.2,66.3-75.3,66.3z"/>
	<path fill="#FFFFFF" d="M-106.9,72.5c-8.3,0-15.1-6.8-15.1-15.1s6.8-15.1,15.1-15.1s15.1,6.8,15.1,15.1S-98.5,72.5-106.9,72.5z
		 M-106.9,66.3c4.9,0,8.9-4,8.9-8.9s-4-8.9-8.9-8.9s-8.9,4-8.9,8.9C-115.7,62.3-111.8,66.3-106.9,66.3z"/>
</g>
</svg>
